<?xml version="1.0" encoding="utf-8"?>
<!-- Generator: Adobe Illustrator 23.0.0, SVG Export Plug-In . SVG Version: 6.00 Build 0)  -->
<svg version="1.1" id="Layer_1" xmlns="http://www.w3.org/2000/svg" xmlns:xlink="http://www.w3.org/1999/xlink" x="0px" y="0px"
	 viewBox="0 0 722 183.8" style="enable-background:new 0 0 722 183.8;" xml:space="preserve">
<style type="text/css">
	.st0{fill:#FFFFFF;}
	.st1{clip-path:url(#SVGID_1_);}
</style>
<defs>
	
	<title>Urbanist Network Logo</title>
</defs>
<g>
	<g>
		<path d="M59.9,63c0,18.8-11.4,29-30,29c-18.7,0-30-10.2-30-29V22.1h16.4v40.3c0,9.4,5.4,13.9,13.6,13.9c8.2,0,13.6-4.5,13.6-13.9
			V22.1h16.4V63z"/>
		<path d="M103.5,22.1c17,0,26,8.4,26,21.9c0,10.9-6.9,18.5-19.2,20.5L130,90.7h-19.5L92.4,65H90v25.7H73.7V22.1H103.5z M90,37v14.3
			h13.3c5.9,0,9.5-2.3,9.5-7.2c0-4.8-3.7-7.1-9.5-7.1H90z"/>
		<path d="M171.1,22.1c17.3,0,26.4,6.8,26.4,19.4c0,6.8-4,12.1-9.5,14.5c6.1,2.2,10.9,8,10.9,15c0,12.6-8.7,19.6-26.1,19.6h-31.2
			V22.1H171.1z M158,35.9v13.5h12.7c5.9,0,9.7-1.7,9.7-6.8c0-5-3.8-6.7-9.7-6.7H158z M158,63.1V77h14c6.3,0,10-1.9,10-7
			c0-5-3.7-6.9-10-6.9H158z"/>
		<path d="M275.2,90.7h-17.4l-5.2-14.4h-27.2l-5.2,14.4H203l26.3-68.6h19.5L275.2,90.7z M230.6,61.5h16.7l-8.3-23.1L230.6,61.5z"/>
		<path d="M345.3,90.7h-15.7l-31.3-41.8v41.8H282V22.1h15.7L328.9,64V22.1h16.4V90.7z"/>
		<path d="M376.1,90.7h-16.4V22.1h16.4V90.7z"/>
		<path d="M438.7,41.6c-4.9-2.9-11.6-5.8-19.6-5.8c-6.2,0-10.8,2.1-10.8,6.2c0,4.3,6.5,5.3,14.1,6.7l2.8,0.5
			c13.3,2.3,21.7,8.5,21.7,19.7c0,16.3-14.1,23.1-28.8,23.1c-11.4,0-22.6-3-30.2-8.7l8.2-13.3c5.2,3.6,12.5,7.2,22.1,7.2
			c6.2,0,10.9-2.1,10.9-6.4c0-4.1-4.6-5.3-13.6-6.7l-3.4-0.5c-14.1-2.2-21.8-8.6-21.5-20.9c0.2-13.3,11.6-21.8,27.6-21.8
			c9.3,0,17.3,1.5,27.7,7.3L438.7,41.6z"/>
		<path d="M512.1,37.3h-20.3v53.4h-16.4V37.3h-20.3V22.1h57V37.3z"/>
	</g>
	<path d="M6,164.8c0,9.4,7.6,17.1,17.1,17.1h466c9.4,0,17.1-7.6,17.1-17.1v-37.9c0-9.4-7.6-17.1-17.1-17.1H23
		c-9.4,0-17.1,7.6-17.1,17.1V164.8z"/>
	<g>
		<path class="st0" d="M142.5,163h-9.8L120,128.7h8.7l8.9,25.9l9-25.9h8.5L142.5,163z"/>
		<path class="st0" d="M174.1,163h-8.2v-34.3h8.2V163z"/>
		<path class="st0" d="M213.9,163h-26.3v-34.3h26.2v7.4h-18v5.9h16.9v7.4h-16.9v6.3h18.1V163z"/>
		<path class="st0" d="M252.8,136.3h-10.1V163h-8.2v-26.7h-10.2v-7.6h28.5V136.3z"/>
		<path class="st0" d="M295.6,163h-7.9L272.1,142V163h-8.2v-34.3h7.8l15.6,20.9v-20.9h8.2V163z"/>
		<path class="st0" d="M342.4,163h-8.7l-2.6-7.2h-13.6l-2.6,7.2h-8.6l13.2-34.3h9.8L342.4,163z M320.1,148.4h8.3l-4.2-11.6
			L320.1,148.4z"/>
		<path class="st0" d="M392,163h-8.2v-23.5l-6.9,20.2h-8.7l-6.9-20.2V163h-8.2v-34.3h11.6l7.8,21.8l7.8-21.8H392V163z"/>
	</g>
</g>
<g>
	<path d="M617.3,183.6c-24.5,0-47.5-9.5-64.9-26.9c-17.3-17.3-26.9-40.4-26.9-64.9c0-24.5,9.5-47.5,26.9-64.9
		c17.3-17.3,40.4-26.9,64.9-26.9c24.5,0,47.5,9.5,64.9,26.9C699.5,44.4,709,67.4,709,91.9c0,24.5-9.5,47.5-26.9,64.9
		C664.8,174.1,641.8,183.6,617.3,183.6z M617.3,6.1c-47.3,0-85.8,38.5-85.8,85.8s38.5,85.8,85.8,85.8c47.3,0,85.8-38.5,85.8-85.8
		S664.6,6.1,617.3,6.1z"/>
	<g>
		<defs>
			<circle id="SVGID_2_" cx="617.3" cy="91.9" r="79.8"/>
		</defs>
		<clipPath id="SVGID_1_">
			<use xlink:href="#SVGID_2_"  style="overflow:visible;"/>
		</clipPath>
		<g class="st1">
			<path d="M621.3,183.2h-9.9v-82.7h103.9V94H611.4V75.8h-8.1v18.3h-16.4v78.2h6.5v-71.8h9.9v81.7H577v-98h16.4v-8.4h-69.9V49.8
				h69.9V-1h27.9v60.7h-18v6.1h18v18.2h103.9v26.3H621.3V183.2z M533.4,65.9h60v-6.1h-60V65.9z M603.3,49.8h8.1V8.9h-8.1V49.8z"/>
			<polygon points="570,111.6 512,111.6 512,101.7 560.1,101.7 560.1,94.1 518.3,94.1 518.3,84.2 570,84.2 			"/>
			<rect x="627.6" y="-1" width="9.9" height="77.9"/>
			<polygon points="691.1,76.9 644.2,76.9 644.2,40.2 660.4,56.4 654.1,62.8 654.1,67 691.1,67 			"/>
			<polygon points="637.4,143.5 616.4,143.5 616.4,133.6 633.9,133.6 635.6,132.3 620.5,116.6 687.5,116.6 687.5,126.5 643.8,126.5 
				650.2,133.2 			"/>
			<path d="M690.9,76.9c-2.2,0-4.2-1.5-4.8-3.7c-7.1-26.4-28-46.1-54.5-51.3c-2.7-0.5-4.4-3.1-3.9-5.8c0.5-2.7,3.1-4.4,5.8-3.9
				c14.8,2.9,28.5,10,39.5,20.4c10.9,10.3,18.8,23.5,22.7,38.1c0.7,2.6-0.9,5.4-3.5,6.1C691.7,76.9,691.3,76.9,690.9,76.9z"/>
			<path d="M631.3,171.7c-2.3,0-4.4-1.7-4.9-4.1c-0.5-2.7,1.3-5.3,4-5.8c23.5-4.4,43.2-20.2,52.5-42.3c1.1-2.5,4-3.7,6.5-2.6
				c2.5,1.1,3.7,4,2.6,6.5c-5.2,12.2-13.4,23.1-23.7,31.5c-10.5,8.5-23,14.3-36.2,16.7C631.9,171.7,631.6,171.7,631.3,171.7z"/>
			<path d="M568.6,158.1l-8.4-8.3c-11.7-11.6-19.6-26.2-22.7-42.2c-0.5-2.7,1.2-5.3,3.9-5.8c2.7-0.5,5.3,1.2,5.8,3.9
				c2.2,11.2,7,21.5,14,30.4l7.4,0.1V158.1z"/>
		</g>
	</g>
</g>
</svg>
